<?xml version="1.0" standalone="no"?>
<!DOCTYPE svg PUBLIC "-//W3C//DTD SVG 20010904//EN"
 "http://www.w3.org/TR/2001/REC-SVG-20010904/DTD/svg10.dtd">
<svg version="1.0" xmlns="http://www.w3.org/2000/svg"
 width="1142.000000pt" height="1142.000000pt" viewBox="0 0 1142.000000 1142.000000"
 preserveAspectRatio="xMidYMid meet">
<metadata>
Created by potrace 1.14, written by Peter Selinger 2001-2017
</metadata>
<g transform="translate(0.000000,1142.000000) scale(0.100000,-0.100000)"
fill="#000000" stroke="none">
<path d="M3255 11234 c-307 -29 -426 -49 -605 -98 -647 -177 -1108 -635 -1230
-1221 -41 -193 -43 -466 -5 -644 71 -337 282 -659 545 -831 293 -191 747 -349
1385 -480 363 -74 520 -123 623 -194 148 -103 173 -317 50 -432 -93 -88 -247
-125 -513 -125 -470 1 -753 166 -901 524 -29 71 -37 82 -56 79 -50 -5 -1411
-252 -1416 -256 -6 -7 55 -186 105 -306 217 -520 599 -884 1128 -1075 395
-143 971 -198 1475 -139 578 66 1030 262 1374 594 171 165 279 324 359 525
127 318 140 724 35 1055 -101 317 -341 616 -634 789 -199 117 -582 232 -1314
395 -466 104 -575 141 -660 226 -51 51 -75 129 -66 212 14 140 111 226 296
264 115 23 382 16 492 -14 228 -62 390 -192 493 -396 l41 -81 642 194 c353
107 642 199 642 204 0 27 -139 287 -208 392 -141 210 -281 352 -487 490 -257
172 -571 283 -935 330 -118 16 -560 28 -655 19z"/>
<path d="M6600 8625 l0 -2535 790 0 790 0 0 919 0 919 563 5 c448 4 585 8 677
21 276 40 513 116 722 234 262 147 508 407 627 663 113 245 161 524 140 816
-24 340 -137 629 -348 886 -165 203 -416 377 -666 464 -185 64 -453 112 -740
133 -83 6 -631 10 -1347 10 l-1208 0 0 -2535z m2412 1348 c101 -29 170 -65
230 -120 176 -166 162 -533 -26 -688 -23 -19 -71 -48 -107 -64 -140 -66 -262
-81 -656 -81 l-293 0 0 491 0 490 388 -3 c357 -4 393 -6 464 -25z"/>
<path d="M5214 5319 c-338 -26 -654 -104 -899 -223 -335 -164 -601 -424 -756
-741 -65 -134 -92 -211 -119 -335 -75 -342 -36 -710 105 -991 96 -190 264
-387 419 -490 305 -204 772 -363 1496 -510 491 -99 650 -201 650 -417 0 -192
-147 -291 -460 -311 -540 -34 -883 144 -1036 536 -24 62 -30 72 -48 68 -26 -6
-1412 -255 -1420 -255 -9 0 83 -256 127 -355 257 -575 712 -945 1359 -1104
484 -119 1138 -117 1621 5 243 61 516 178 702 301 234 154 428 355 550 569
200 350 246 829 120 1234 -105 336 -371 652 -682 813 -230 119 -617 230 -1405
402 -301 66 -457 124 -525 197 -58 61 -80 192 -49 280 35 99 133 165 286 194
108 21 383 15 475 -10 235 -64 402 -194 496 -385 24 -49 49 -90 56 -90 11 -1
1274 378 1281 385 2 1 -26 64 -62 139 -284 591 -761 943 -1437 1060 -234 41
-580 55 -845 34z"/>
</g>
</svg>
